<svg width="49" height="48" viewBox="0 0 49 48" fill="none" xmlns="http://www.w3.org/2000/svg">
<g clip-path="url(#clip0_14_32)">
<path d="M4.08817 7.88298C4.33019 5.60104 6.09446 3.77678 8.36704 3.45861L17.2585 2.21381C21.7099 1.59062 24.6589 6.69999 21.8927 10.2427L11.7564 23.2242C8.66268 27.1864 2.31318 24.6186 2.84336 19.6197L4.08817 7.88298Z" fill="#6FC96E"/>
<path d="M1.77327 5.77396C1.99109 3.72021 3.57893 2.07837 5.62425 1.79203L14.5157 0.547218C18.5219 -0.0136487 21.1761 4.58478 18.6865 7.77321L8.55021 20.7548C5.76585 24.3207 0.0512957 22.0097 0.528461 17.5107L1.77327 5.77396Z" stroke="black"/>
<path d="M21.364 26.2197C20.3134 24.405 20.8425 22.087 22.5763 20.9079L40.8249 8.49771C43.923 6.3908 47.9579 9.31773 46.9167 12.9168L44.2996 21.9643C44.1034 22.6427 44.0902 23.3609 44.2615 24.046L48.372 40.488C49.107 43.4278 46.4333 46.0854 43.4979 45.3328L32.1268 42.4171C31.0863 42.1503 30.1968 41.4762 29.6586 40.5466L21.364 26.2197Z" fill="#6FC96E"/>
<path d="M18.2967 23.7111C17.3775 22.1233 17.8404 20.095 19.3575 19.0633L37.6061 6.65311C40.3169 4.80956 43.8474 7.37062 42.9364 10.5198L40.3193 19.5673C40.0985 20.3305 40.0837 21.1385 40.2764 21.9092L44.3869 38.3512C45.03 40.9236 42.6905 43.249 40.1221 42.5904L28.751 39.6747C27.8405 39.4413 27.0622 38.8514 26.5913 38.038L18.2967 23.7111Z" stroke="black"/>
<path d="M13.2035 27.8704C13.9871 27.6465 14.8282 27.9205 15.3296 28.5629L27.6748 44.3802C28.7497 45.7575 27.666 47.7542 25.9253 47.6032L3.80599 45.6848C2.65282 45.5848 1.82509 44.5298 2.00241 43.3859L3.8039 31.765C3.92344 30.9939 4.48055 30.3627 5.23085 30.1483L13.2035 27.8704Z" fill="#6FC96E"/>
<path d="M11.6662 25.8512C12.2539 25.6833 12.8847 25.8887 13.2608 26.3706L25.6059 42.1878C26.4122 43.2208 25.5993 44.7183 24.2939 44.6051L2.17451 42.6867C1.30963 42.6117 0.688833 41.8204 0.821822 40.9625L2.62331 29.3416C2.71297 28.7633 3.1308 28.2899 3.69353 28.1291L11.6662 25.8512Z" stroke="black"/>
</g>
<defs>
<clipPath id="clip0_14_32">
<rect width="49" height="48" fill="white"/>
</clipPath>
</defs>
</svg>
