<svg  viewBox="0 0 28 22" fill="none" xmlns="http://www.w3.org/2000/svg">
<g clip-path="url(#clip0_16_52)">
<path d="M-0.078125 22.7031V17.0312C-0.078125 15.125 0.234375 13.1406 0.859375 11.0781C1.51562 8.98437 2.45312 6.98438 3.67188 5.07812C4.89062 3.14063 6.35938 1.46875 8.07812 0.0625L13 3.48438C11.5625 5.54688 10.4531 7.67187 9.67188 9.85938C8.89062 12.0156 8.5 14.3594 8.5 16.8906V22.7031H-0.078125ZM14.6875 22.7031V17.0312C14.6875 15.125 15 13.1406 15.625 11.0781C16.2812 8.98437 17.2188 6.98438 18.4375 5.07812C19.6562 3.14063 21.125 1.46875 22.8438 0.0625L27.7656 3.48438C26.3281 5.54688 25.2188 7.67187 24.4375 9.85938C23.6562 12.0156 23.2656 14.3594 23.2656 16.8906V22.7031H14.6875Z" fill="currentColor"/>
</g>
</svg>
