<svg viewBox="0 0 35 29" fill="none" xmlns="http://www.w3.org/2000/svg">
<g clip-path="url(#clip0_13_21)">
<path d="M34.5 23.5C34.5 24.0276 34.159 24.6209 33.3265 25.2395C32.5035 25.8511 31.2805 26.423 29.7245 26.9121C26.6182 27.8884 22.2961 28.5 17.5 28.5C12.7039 28.5 8.38183 27.8884 5.27554 26.9121C3.71946 26.423 2.49654 25.8511 1.67345 25.2395C0.840983 24.6209 0.5 24.0276 0.5 23.5C0.5 22.9724 0.840983 22.3791 1.67345 21.7605C2.49654 21.1489 3.71946 20.577 5.27554 20.0879C8.38183 19.1116 12.7039 18.5 17.5 18.5C22.2961 18.5 26.6182 19.1116 29.7245 20.0879C31.2805 20.577 32.5035 21.1489 33.3265 21.7605C34.159 22.3791 34.5 22.9724 34.5 23.5Z" stroke="currentColor"/>
<path d="M34.5 17.5C34.5 18.0276 34.159 18.6209 33.3265 19.2395C32.5035 19.8511 31.2805 20.423 29.7245 20.9121C26.6182 21.8884 22.2961 22.5 17.5 22.5C12.7039 22.5 8.38183 21.8884 5.27554 20.9121C3.71946 20.423 2.49654 19.8511 1.67345 19.2395C0.840983 18.6209 0.5 18.0276 0.5 17.5C0.5 16.9724 0.840983 16.3791 1.67345 15.7605C2.49654 15.1489 3.71946 14.577 5.27554 14.0879C8.38183 13.1116 12.7039 12.5 17.5 12.5C22.2961 12.5 26.6182 13.1116 29.7245 14.0879C31.2805 14.577 32.5035 15.1489 33.3265 15.7605C34.159 16.3791 34.5 16.9724 34.5 17.5Z" stroke="currentColor"/>
<path d="M34.5 11.5C34.5 12.0276 34.159 12.6209 33.3265 13.2395C32.5035 13.8511 31.2805 14.423 29.7245 14.9121C26.6182 15.8884 22.2961 16.5 17.5 16.5C12.7039 16.5 8.38183 15.8884 5.27554 14.9121C3.71946 14.423 2.49654 13.8511 1.67345 13.2395C0.840983 12.6209 0.5 12.0276 0.5 11.5C0.5 10.9724 0.840983 10.3791 1.67345 9.76049C2.49654 9.14888 3.71946 8.57697 5.27554 8.08791C8.38183 7.11165 12.7039 6.5 17.5 6.5C22.2961 6.5 26.6182 7.11165 29.7245 8.08791C31.2805 8.57697 32.5035 9.14888 33.3265 9.76049C34.159 10.3791 34.5 10.9724 34.5 11.5Z" stroke="currentColor"/>
<path d="M34.5 5.5C34.5 6.02755 34.159 6.62095 33.3265 7.23951C32.5035 7.85112 31.2805 8.42303 29.7245 8.91209C26.6182 9.88835 22.2961 10.5 17.5 10.5C12.7039 10.5 8.38183 9.88835 5.27554 8.91209C3.71946 8.42303 2.49654 7.85112 1.67345 7.23951C0.840983 6.62095 0.5 6.02755 0.5 5.5C0.5 4.97245 0.840983 4.37905 1.67345 3.76049C2.49654 3.14888 3.71946 2.57697 5.27554 2.08791C8.38183 1.11165 12.7039 0.5 17.5 0.5C22.2961 0.5 26.6182 1.11165 29.7245 2.08791C31.2805 2.57697 32.5035 3.14888 33.3265 3.76049C34.159 4.37905 34.5 4.97245 34.5 5.5Z" stroke="currentColor"/>
</g>
</svg>
